<svg xmlns="http://www.w3.org/2000/svg" width="15" height="14" viewBox="0 0 15 14" fill="none">
<path d="M7.60465 0.333496C3.93799 0.333496 0.937988 3.3335 0.937988 7.00016C0.937988 10.6668 3.93799 13.6668 7.60465 13.6668C11.2713 13.6668 14.2713 10.6668 14.2713 7.00016C14.2713 3.3335 11.2713 0.333496 7.60465 0.333496ZM7.60465 12.3335C4.66465 12.3335 2.27132 9.94016 2.27132 7.00016C2.27132 4.06016 4.66465 1.66683 7.60465 1.66683C10.5447 1.66683 12.938 4.06016 12.938 7.00016C12.938 9.94016 10.5447 12.3335 7.60465 12.3335ZM10.6647 4.0535L6.27132 8.44683L4.54465 6.72683L3.60465 7.66683L6.27132 10.3335L11.6047 5.00016L10.6647 4.0535Z" fill="#64748B"/>
</svg>