<svg width="19" height="18" viewBox="0 0 19 18" fill="none" xmlns="http://www.w3.org/2000/svg">
<g clip-path="url(#clip0_1705_9687)">
<path fill-rule="evenodd" clip-rule="evenodd" d="M9.66699 0C4.69629 0 0.666992 4.0356 0.666992 9.0153C0.666992 12.9978 3.24549 16.3773 6.82209 17.5689C7.27209 17.6517 7.43589 17.3736 7.43589 17.1342C7.43589 16.9209 7.42869 16.353 7.42419 15.6015C4.92039 16.146 4.39209 14.3928 4.39209 14.3928C3.98349 13.3506 3.39309 13.0734 3.39309 13.0734C2.57589 12.5154 3.45519 12.5262 3.45519 12.5262C4.35789 12.5892 4.83309 13.455 4.83309 13.455C5.63589 14.832 6.93999 14.4342 7.45209 14.2038C7.53489 13.6215 7.76709 13.2246 8.02449 12.9996C6.02649 12.7719 3.92499 11.9979 3.92499 8.5437C3.92499 7.56 4.27599 6.7545 4.85109 6.1245C4.75839 5.8968 4.44969 4.9797 4.93929 3.7395C4.93929 3.7395 5.69529 3.4965 7.41429 4.6629C8.14848 4.46266 8.90599 4.36067 9.66699 4.3596C10.432 4.3632 11.2015 4.4631 11.9206 4.6629C13.6387 3.4965 14.3929 3.7386 14.3929 3.7386C14.8843 4.9797 14.5747 5.8968 14.4829 6.1245C15.0589 6.7545 15.4081 7.56 15.4081 8.5437C15.4081 12.0069 13.303 12.7692 11.2987 12.9924C11.6218 13.2705 11.9089 13.8204 11.9089 14.6619C11.9089 15.8661 11.8981 16.839 11.8981 17.1342C11.8981 17.3754 12.0601 17.6562 12.5173 17.568C14.3095 16.9669 15.8674 15.8178 16.9709 14.283C18.0745 12.7483 18.6678 10.9056 18.667 9.0153C18.667 4.0356 14.6368 0 9.66699 0Z" fill="#94A3B8"/>
</g>
<defs>
<clipPath id="clip0_1705_9687">
<rect width="18" height="18" fill="white" transform="translate(0.666992)"/>
</clipPath>
</defs>
</svg>
