<svg xmlns="http://www.w3.org/2000/svg" width="26.67" height="26.67" viewBox="0 0 27 27" fill="none">
<path d="M12 21.3333H14.6667V18.6667H12V21.3333ZM13.3333 0C11.5824 0 9.84856 0.344877 8.23089 1.01494C6.61321 1.685 5.14336 2.66713 3.90524 3.90524C1.40476 6.40573 0 9.79711 0 13.3333C0 16.8696 1.40476 20.2609 3.90524 22.7614C5.14336 23.9995 6.61321 24.9817 8.23089 25.6517C9.84856 26.3218 11.5824 26.6667 13.3333 26.6667C16.8696 26.6667 20.2609 25.2619 22.7614 22.7614C25.2619 20.2609 26.6667 16.8696 26.6667 13.3333C26.6667 11.5824 26.3218 9.84856 25.6517 8.23089C24.9817 6.61321 23.9995 5.14336 22.7614 3.90524C21.5233 2.66713 20.0535 1.685 18.4358 1.01494C16.8181 0.344877 15.0843 0 13.3333 0ZM13.3333 24C7.45333 24 2.66667 19.2133 2.66667 13.3333C2.66667 7.45333 7.45333 2.66667 13.3333 2.66667C19.2133 2.66667 24 7.45333 24 13.3333C24 19.2133 19.2133 24 13.3333 24ZM13.3333 5.33333C11.9188 5.33333 10.5623 5.89524 9.5621 6.89543C8.5619 7.89562 8 9.25218 8 10.6667H10.6667C10.6667 9.95942 10.9476 9.28115 11.4477 8.78105C11.9478 8.28095 12.6261 8 13.3333 8C14.0406 8 14.7189 8.28095 15.219 8.78105C15.719 9.28115 16 9.95942 16 10.6667C16 13.3333 12 13 12 17.3333H14.6667C14.6667 14.3333 18.6667 14 18.6667 10.6667C18.6667 9.25218 18.1048 7.89562 17.1046 6.89543C16.1044 5.89524 14.7478 5.33333 13.3333 5.33333Z" fill="#849DFF"/>
</svg>