<svg width="32" height="32" viewBox="0 0 32 32" fill="none" xmlns="http://www.w3.org/2000/svg">
<path d="M0.5 4C0.5 2.067 2.067 0.5 4 0.5H28C29.933 0.5 31.5 2.067 31.5 4V28C31.5 29.933 29.933 31.5 28 31.5H4C2.067 31.5 0.5 29.933 0.5 28V4Z" fill="black"/>
<path d="M16.4434 8.54639C17.5042 8.54639 18.5216 8.96781 19.2718 9.71796C20.0219 10.4681 20.4434 11.4855 20.4434 12.5464C20.4434 13.6073 20.0219 14.6247 19.2718 15.3748C18.5216 16.125 17.5042 16.5464 16.4434 16.5464C15.3825 16.5464 14.3651 16.125 13.6149 15.3748C12.8648 14.6247 12.4434 13.6073 12.4434 12.5464C12.4434 11.4855 12.8648 10.4681 13.6149 9.71796C14.3651 8.96781 15.3825 8.54639 16.4434 8.54639ZM16.4434 10.5464C15.9129 10.5464 15.4042 10.7571 15.0291 11.1322C14.6541 11.5072 14.4434 12.016 14.4434 12.5464C14.4434 13.0768 14.6541 13.5855 15.0291 13.9606C15.4042 14.3357 15.9129 14.5464 16.4434 14.5464C16.9738 14.5464 17.4825 14.3357 17.8576 13.9606C18.2326 13.5855 18.4434 13.0768 18.4434 12.5464C18.4434 12.016 18.2326 11.5072 17.8576 11.1322C17.4825 10.7571 16.9738 10.5464 16.4434 10.5464ZM16.4434 17.5464C19.1134 17.5464 24.4434 18.8764 24.4434 21.5464V24.5464H8.44336V21.5464C8.44336 18.8764 13.7734 17.5464 16.4434 17.5464ZM16.4434 19.4464C13.4734 19.4464 10.3434 20.9064 10.3434 21.5464V22.6464H22.5434V21.5464C22.5434 20.9064 19.4134 19.4464 16.4434 19.4464Z" fill="#F8FAFC"/>
<path d="M0.5 4C0.5 2.067 2.067 0.5 4 0.5H28C29.933 0.5 31.5 2.067 31.5 4V28C31.5 29.933 29.933 31.5 28 31.5H4C2.067 31.5 0.5 29.933 0.5 28V4Z" stroke="#334155"/>
</svg>
